<svg width="1439" height="80" viewBox="0 0 1439 80" fill="none" xmlns="http://www.w3.org/2000/svg">
<rect width="1439" height="80" fill="#FDFDFD"/>
<path d="M163.828 25.5286C165.864 25.5286 167.515 23.8768 167.515 21.8393C167.515 19.8017 165.864 18.1499 163.828 18.1499C161.792 18.1499 160.142 19.8017 160.142 21.8393C160.142 23.8768 161.792 25.5286 163.828 25.5286Z" fill="#4386D1"/>
<path fill-rule="evenodd" clip-rule="evenodd" d="M189.013 36.9082C190.255 37.2011 191.527 37.3441 192.803 37.3343C194.431 37.3077 196.034 36.9358 197.508 36.2431C198.859 39.3505 199.289 42.7812 198.746 46.1262C198.203 49.4712 196.71 52.5893 194.445 55.1088C192.18 57.6283 189.239 59.4427 185.973 60.3359C182.706 61.229 179.251 61.1631 176.021 60.146V53.9105H167.163C164.748 50.7459 163.471 46.8577 163.541 42.8763C163.611 38.8949 165.023 35.0538 167.548 31.9761C170.073 28.8984 173.562 26.7645 177.451 25.9205C181.34 25.0765 185.399 25.5719 188.971 27.3263L189.013 36.9082ZM181.266 52.0606C183.014 52.0606 184.722 51.5419 186.175 50.5701C187.629 49.5983 188.762 48.217 189.43 46.601C190.099 44.985 190.274 43.2067 189.933 41.4911C189.592 39.7755 188.751 38.1997 187.515 36.9628C186.279 35.726 184.704 34.8836 182.99 34.5424C181.275 34.2011 179.498 34.3763 177.884 35.0457C176.269 35.715 174.889 36.8486 173.917 38.303C172.946 39.7574 172.428 41.4673 172.428 43.2165C172.428 45.5621 173.359 47.8116 175.017 49.4702C176.674 51.1288 178.922 52.0606 181.266 52.0606Z" fill="#4EBA85"/>
<path d="M173.705 56.2075H159V63.2121H173.705V56.2075Z" fill="#F6C050"/>
<path d="M191.318 34.8296C192.619 35.095 193.963 35.0612 195.249 34.7308C196.535 34.4004 197.729 33.782 198.741 32.9222C199.753 32.0624 200.557 30.9838 201.091 29.7678C201.626 28.5517 201.878 27.23 201.827 25.9024C201.851 24.7286 201.643 23.5617 201.216 22.4684C200.788 21.3751 200.15 20.3767 199.337 19.5303C198.524 18.6839 197.552 18.0061 196.478 17.5356C195.403 17.0651 194.246 16.8111 193.073 16.7881C192.483 16.787 191.894 16.8497 191.318 16.9752V34.8296Z" fill="#EC7D79"/>
<path d="M353 50.5948C353 51.1749 352.828 51.7419 352.506 52.2241C352.183 52.7062 351.725 53.0819 351.19 53.3034C350.654 53.5249 350.065 53.5823 349.496 53.4684C348.928 53.3545 348.406 53.0743 347.997 52.6634C347.588 52.2525 347.31 51.7293 347.198 51.1601C347.086 50.591 347.146 50.0014 347.369 49.466C347.592 48.9307 347.969 48.4737 348.452 48.1529C348.935 47.8322 349.502 47.662 350.082 47.6641C350.466 47.6641 350.846 47.74 351.201 47.8874C351.556 48.0348 351.878 48.2508 352.149 48.5231C352.42 48.7954 352.635 49.1185 352.781 49.474C352.927 49.8295 353.001 50.2104 353 50.5948Z" fill="#1C2B32"/>
<path d="M221.549 33.105C218.843 33.105 216.248 34.1799 214.334 36.0935C212.42 38.0071 211.343 40.6029 211.34 43.3105V63.2122H215.421V51.531C217.189 52.8507 219.343 53.5485 221.549 53.516C224.253 53.516 226.847 52.4408 228.76 50.5269C230.672 48.6129 231.747 46.0171 231.747 43.3105C231.747 40.6038 230.672 38.008 228.76 36.0941C226.847 34.1802 224.253 33.105 221.549 33.105ZM225.827 47.6546C224.681 48.7931 223.132 49.432 221.517 49.432C219.903 49.432 218.353 48.7931 217.208 47.6546C216.065 46.5106 215.423 44.9592 215.423 43.3417C215.423 41.7241 216.065 40.1727 217.208 39.0287C217.77 38.445 218.442 37.9791 219.186 37.6585C219.93 37.3379 220.731 37.1689 221.541 37.1613C222.351 37.1538 223.154 37.3079 223.904 37.6146C224.654 37.9214 225.335 38.3746 225.908 38.9478C226.481 39.5211 226.934 40.2028 227.24 40.9532C227.547 41.7036 227.701 42.5076 227.693 43.3182C227.686 44.1288 227.517 44.9298 227.196 45.6744C226.876 46.4189 226.41 47.0921 225.827 47.6546Z" fill="#1C2B32"/>
<path d="M244.831 53.5161C247.213 53.521 249.521 52.6898 251.353 51.1674L248.757 48.0496C247.664 48.984 246.269 49.4898 244.831 49.4734C243.56 49.481 242.317 49.093 241.275 48.3632C240.233 47.6334 239.444 46.5978 239.016 45.3995H255.029V43.321C255.039 41.2879 254.446 39.2976 253.323 37.6028C252.201 35.908 250.601 34.5853 248.726 33.8025C246.851 33.0197 244.786 32.8122 242.792 33.2063C240.799 33.6004 238.968 34.5784 237.532 36.0161C236.095 37.4537 235.118 39.2862 234.724 41.2808C234.33 43.2753 234.537 45.3421 235.32 47.2185C236.102 49.0949 237.424 50.6963 239.117 51.8195C240.811 52.9426 242.8 53.5368 244.831 53.5265V53.5161ZM244.831 37.1894C246.092 37.2066 247.318 37.6062 248.347 38.3355C249.376 39.0647 250.16 40.0892 250.595 41.2737H239.016C239.454 40.081 240.245 39.0507 241.285 38.3208C242.324 37.5909 243.562 37.1961 244.831 37.1894Z" fill="#1C2B32"/>
<path d="M287.503 53.516C289.519 53.516 291.491 52.9174 293.168 51.796C294.845 50.6746 296.152 49.0808 296.924 47.216C297.696 45.3511 297.898 43.2992 297.505 41.3195C297.111 39.3398 296.14 37.5214 294.714 36.0941C293.287 34.6668 291.47 33.6949 289.492 33.3011C287.514 32.9073 285.463 33.1094 283.6 33.8818C281.737 34.6543 280.144 35.9623 279.023 37.6406C277.903 39.3189 277.305 41.292 277.305 43.3105C277.305 46.0171 278.379 48.613 280.291 50.5269C282.204 52.4408 284.798 53.516 287.503 53.516ZM283.162 39.0287C283.724 38.445 284.396 37.9791 285.14 37.6585C285.884 37.3379 286.685 37.1689 287.495 37.1613C288.305 37.1538 289.108 37.3079 289.858 37.6146C290.608 37.9214 291.289 38.3746 291.862 38.9478C292.435 39.5211 292.888 40.2028 293.194 40.9532C293.501 41.7036 293.655 42.5076 293.647 43.3182C293.64 44.1288 293.471 44.9298 293.15 45.6744C292.83 46.4189 292.364 47.0921 291.781 47.6546C290.635 48.7931 289.086 49.432 287.471 49.432C285.857 49.432 284.307 48.7931 283.162 47.6546C282.019 46.5106 281.377 44.9592 281.377 43.3417C281.377 41.7241 282.019 40.1727 283.162 39.0287Z" fill="#1C2B32"/>
<path d="M316.58 35.1419C315.064 34.0002 313.26 33.304 311.37 33.1316C309.48 32.9591 307.58 33.3172 305.882 34.1655C304.184 35.0139 302.757 36.3191 301.759 37.9344C300.761 39.5498 300.233 41.4115 300.234 43.3104C300.319 45.9621 301.431 48.4769 303.335 50.3227C305.239 52.1685 307.786 53.2005 310.438 53.2005C313.089 53.2005 315.636 52.1685 317.54 50.3227C319.444 48.4769 320.556 45.9621 320.641 43.3104V23.4087H316.559L316.58 35.1419ZM314.773 47.6545C313.627 48.7931 312.078 49.432 310.463 49.432C308.849 49.432 307.3 48.7931 306.154 47.6545C305.011 46.5105 304.369 44.9592 304.369 43.3416C304.369 41.7241 305.011 40.1727 306.154 39.0287C306.716 38.4449 307.388 37.9791 308.133 37.6585C308.877 37.3378 309.677 37.1688 310.487 37.1613C311.297 37.1538 312.1 37.3079 312.85 37.6146C313.6 37.9214 314.281 38.3746 314.854 38.9478C315.427 39.521 315.88 40.2027 316.186 40.9531C316.493 41.7035 316.647 42.5075 316.639 43.3181C316.632 44.1288 316.463 44.9298 316.142 45.6743C315.822 46.4189 315.357 47.0921 314.773 47.6545Z" fill="#1C2B32"/>
<path d="M333.466 53.5153C335.847 53.5166 338.154 52.6859 339.988 51.1666L337.392 48.0488C336.293 48.9681 334.898 49.459 333.466 49.431C332.195 49.4386 330.952 49.0506 329.91 48.3208C328.868 47.591 328.079 46.5554 327.651 45.3571H343.664V43.2786C343.668 41.2468 343.069 39.2595 341.943 37.5688C340.817 35.8782 339.215 34.5603 337.339 33.7823C335.463 33.0043 333.399 32.8012 331.408 33.1989C329.417 33.5965 327.589 34.577 326.156 36.0159C324.722 37.4548 323.748 39.2873 323.357 41.2811C322.965 43.2748 323.174 45.3399 323.958 47.2145C324.741 49.0891 326.063 50.6887 327.755 51.8105C329.448 52.9322 331.436 53.5256 333.466 53.5153ZM333.466 37.1886C334.727 37.2058 335.953 37.6054 336.982 38.3346C338.011 39.0639 338.795 40.0884 339.23 41.2728H327.609C328.05 40.0735 328.848 39.0386 329.895 38.3081C330.943 37.5776 332.189 37.1868 333.466 37.1886Z" fill="#1C2B32"/>
<path d="M272.102 48.0282L274.73 51.146C273.243 52.4095 271.426 53.2208 269.494 53.4842C267.561 53.7477 265.594 53.4521 263.824 52.6325C262.053 51.813 260.555 50.5035 259.504 48.859C258.454 47.2144 257.896 45.3033 257.896 43.3515C257.896 41.3997 258.454 39.4887 259.504 37.8441C260.555 36.1995 262.053 34.8901 263.824 34.0705C265.594 33.2509 267.561 32.9554 269.494 33.2188C271.426 33.4822 273.243 34.2936 274.73 35.5571L272.092 38.6749C271.337 38.0357 270.439 37.5883 269.474 37.3706C268.509 37.1529 267.506 37.1714 266.55 37.4244C265.593 37.6775 264.712 38.1577 263.981 38.8243C263.25 39.4909 262.69 40.3241 262.35 41.2534C262.009 42.1826 261.898 43.1803 262.025 44.1619C262.151 45.1435 262.513 46.08 263.079 46.8918C263.645 47.7037 264.398 48.3669 265.275 48.8253C266.151 49.2836 267.125 49.5236 268.114 49.5247C269.581 49.5247 270.997 48.9931 272.102 48.0282Z" fill="#1C2B32"/>
<path d="M546.633 34.6469C546.319 33.9195 545.866 33.2603 545.299 32.7063C544.732 32.1506 544.064 31.709 543.33 31.4055C542.57 31.0895 541.754 30.9278 540.93 30.9297C539.775 30.9297 538.648 31.2461 537.668 31.8438C537.434 31.9867 537.211 32.1438 537 32.3149C536.789 32.1438 536.566 31.9867 536.332 31.8438C535.352 31.2461 534.225 30.9297 533.07 30.9297C532.237 30.9297 531.431 31.0891 530.67 31.4055C529.934 31.7102 529.27 32.1485 528.701 32.7063C528.134 33.2597 527.68 33.919 527.367 34.6469C527.041 35.4039 526.875 36.2078 526.875 37.0352C526.875 37.8156 527.034 38.6289 527.351 39.4563C527.616 40.1477 527.995 40.8649 528.48 41.5891C529.249 42.7352 530.306 43.9305 531.619 45.1422C533.794 47.1508 535.948 48.5383 536.039 48.5945L536.595 48.9508C536.841 49.1078 537.157 49.1078 537.403 48.9508L537.959 48.5945C538.05 48.536 540.202 47.1508 542.379 45.1422C543.691 43.9305 544.748 42.7352 545.517 41.5891C546.002 40.8649 546.384 40.1477 546.647 39.4563C546.963 38.6289 547.123 37.8156 547.123 37.0352C547.125 36.2078 546.959 35.4039 546.633 34.6469Z" fill="#F6C050"/>
<path d="M546.633 34.6469C546.319 33.9195 545.866 33.2603 545.299 32.7063C544.732 32.1506 544.064 31.709 543.33 31.4055C542.57 31.0895 541.754 30.9278 540.93 30.9297C539.775 30.9297 538.648 31.2461 537.668 31.8438C537.434 31.9867 537.211 32.1438 537 32.3149C536.789 32.1438 536.566 31.9867 536.332 31.8438C535.352 31.2461 534.225 30.9297 533.07 30.9297C532.237 30.9297 531.431 31.0891 530.67 31.4055C529.934 31.7102 529.27 32.1485 528.701 32.7063C528.134 33.2597 527.68 33.919 527.367 34.6469C527.041 35.4039 526.875 36.2078 526.875 37.0352C526.875 37.8156 527.034 38.6289 527.351 39.4563C527.351 39.4563 534.872 39.4564 537 39.4563C539.127 39.4561 546.647 39.4563 546.647 39.4563C546.963 38.6289 547.123 37.8156 547.123 37.0352C547.125 36.2078 546.959 35.4039 546.633 34.6469Z" fill="#4386D1"/>
<path d="M561.864 46.112C561.117 46.112 560.445 45.984 559.848 45.728C559.251 45.4613 558.781 45.088 558.44 44.608C558.099 44.128 557.928 43.568 557.928 42.928H559.88C559.923 43.408 560.109 43.8027 560.44 44.112C560.781 44.4213 561.256 44.576 561.864 44.576C562.493 44.576 562.984 44.4267 563.336 44.128C563.688 43.8187 563.864 43.424 563.864 42.944C563.864 42.5707 563.752 42.2667 563.528 42.032C563.315 41.7973 563.043 41.616 562.712 41.488C562.392 41.36 561.944 41.2213 561.368 41.072C560.643 40.88 560.051 40.688 559.592 40.496C559.144 40.2933 558.76 39.984 558.44 39.568C558.12 39.152 557.96 38.5973 557.96 37.904C557.96 37.264 558.12 36.704 558.44 36.224C558.76 35.744 559.208 35.376 559.784 35.12C560.36 34.864 561.027 34.736 561.784 34.736C562.861 34.736 563.741 35.008 564.424 35.552C565.117 36.0853 565.501 36.8213 565.576 37.76H563.56C563.528 37.3547 563.336 37.008 562.984 36.72C562.632 36.432 562.168 36.288 561.592 36.288C561.069 36.288 560.643 36.4213 560.312 36.688C559.981 36.9547 559.816 37.3387 559.816 37.84C559.816 38.1813 559.917 38.464 560.12 38.688C560.333 38.9013 560.6 39.072 560.92 39.2C561.24 39.328 561.677 39.4667 562.232 39.616C562.968 39.8187 563.565 40.0213 564.024 40.224C564.493 40.4267 564.888 40.7413 565.208 41.168C565.539 41.584 565.704 42.144 565.704 42.848C565.704 43.4133 565.549 43.9467 565.24 44.448C564.941 44.9493 564.499 45.3547 563.912 45.664C563.336 45.9627 562.653 46.112 561.864 46.112ZM569.984 38.672V43.552C569.984 43.8827 570.059 44.1227 570.208 44.272C570.368 44.4107 570.635 44.48 571.008 44.48H572.128V46H570.688C569.867 46 569.238 45.808 568.8 45.424C568.363 45.04 568.144 44.416 568.144 43.552V38.672H567.104V37.184H568.144V34.992H569.984V37.184H572.128V38.672H569.984ZM573.201 41.552C573.201 40.6667 573.383 39.8827 573.745 39.2C574.119 38.5173 574.62 37.9893 575.249 37.616C575.889 37.232 576.593 37.04 577.361 37.04C578.055 37.04 578.657 37.1787 579.169 37.456C579.692 37.7227 580.108 38.0587 580.417 38.464V37.184H582.257V46H580.417V44.688C580.108 45.104 579.687 45.4507 579.153 45.728C578.62 46.0053 578.012 46.144 577.329 46.144C576.572 46.144 575.879 45.952 575.249 45.568C574.62 45.1733 574.119 44.6293 573.745 43.936C573.383 43.232 573.201 42.4373 573.201 41.552ZM580.417 41.584C580.417 40.976 580.289 40.448 580.033 40C579.788 39.552 579.463 39.2107 579.057 38.976C578.652 38.7413 578.215 38.624 577.745 38.624C577.276 38.624 576.839 38.7413 576.433 38.976C576.028 39.2 575.697 39.536 575.441 39.984C575.196 40.4213 575.073 40.944 575.073 41.552C575.073 42.16 575.196 42.6933 575.441 43.152C575.697 43.6107 576.028 43.9627 576.433 44.208C576.849 44.4427 577.287 44.56 577.745 44.56C578.215 44.56 578.652 44.4427 579.057 44.208C579.463 43.9733 579.788 43.632 580.033 43.184C580.289 42.7253 580.417 42.192 580.417 41.584ZM589.101 37.04C589.794 37.04 590.413 37.184 590.957 37.472C591.512 37.76 591.944 38.1867 592.253 38.752C592.562 39.3173 592.717 40 592.717 40.8V46H590.909V41.072C590.909 40.2827 590.712 39.68 590.317 39.264C589.922 38.8373 589.384 38.624 588.701 38.624C588.018 38.624 587.474 38.8373 587.069 39.264C586.674 39.68 586.477 40.2827 586.477 41.072V46H584.653V37.184H586.477V38.192C586.776 37.8293 587.154 37.5467 587.613 37.344C588.082 37.1413 588.578 37.04 589.101 37.04ZM594.436 41.552C594.436 40.6667 594.617 39.8827 594.98 39.2C595.353 38.5173 595.854 37.9893 596.484 37.616C597.124 37.232 597.833 37.04 598.612 37.04C599.188 37.04 599.753 37.168 600.308 37.424C600.873 37.6693 601.321 38 601.652 38.416V34.16H603.492V46H601.652V44.672C601.353 45.0987 600.937 45.4507 600.404 45.728C599.881 46.0053 599.278 46.144 598.596 46.144C597.828 46.144 597.124 45.952 596.484 45.568C595.854 45.1733 595.353 44.6293 594.98 43.936C594.617 43.232 594.436 42.4373 594.436 41.552ZM601.652 41.584C601.652 40.976 601.524 40.448 601.268 40C601.022 39.552 600.697 39.2107 600.292 38.976C599.886 38.7413 599.449 38.624 598.98 38.624C598.51 38.624 598.073 38.7413 597.668 38.976C597.262 39.2 596.932 39.536 596.676 39.984C596.43 40.4213 596.308 40.944 596.308 41.552C596.308 42.16 596.43 42.6933 596.676 43.152C596.932 43.6107 597.262 43.9627 597.668 44.208C598.084 44.4427 598.521 44.56 598.98 44.56C599.449 44.56 599.886 44.4427 600.292 44.208C600.697 43.9733 601.022 43.632 601.268 43.184C601.524 42.7253 601.652 42.192 601.652 41.584ZM621.884 37.184L619.148 46H617.228L615.452 39.488L613.676 46H611.756L609.004 37.184H610.86L612.7 44.272L614.572 37.184H616.476L618.268 44.24L620.092 37.184H621.884ZM624.175 36.016C623.844 36.016 623.567 35.904 623.343 35.68C623.119 35.456 623.007 35.1787 623.007 34.848C623.007 34.5173 623.119 34.24 623.343 34.016C623.567 33.792 623.844 33.68 624.175 33.68C624.495 33.68 624.767 33.792 624.991 34.016C625.215 34.24 625.327 34.5173 625.327 34.848C625.327 35.1787 625.215 35.456 624.991 35.68C624.767 35.904 624.495 36.016 624.175 36.016ZM625.071 37.184V46H623.247V37.184H625.071ZM629.594 38.672V43.552C629.594 43.8827 629.668 44.1227 629.818 44.272C629.978 44.4107 630.244 44.48 630.618 44.48H631.738V46H630.298C629.476 46 628.847 45.808 628.41 45.424C627.972 45.04 627.754 44.416 627.754 43.552V38.672H626.714V37.184H627.754V34.992H629.594V37.184H631.738V38.672H629.594ZM637.979 37.04C638.651 37.04 639.248 37.184 639.771 37.472C640.304 37.76 640.72 38.1867 641.019 38.752C641.328 39.3173 641.483 40 641.483 40.8V46H639.675V41.072C639.675 40.2827 639.477 39.68 639.083 39.264C638.688 38.8373 638.149 38.624 637.467 38.624C636.784 38.624 636.24 38.8373 635.835 39.264C635.44 39.68 635.243 40.2827 635.243 41.072V46H633.419V34.16H635.243V38.208C635.552 37.8347 635.941 37.5467 636.411 37.344C636.891 37.1413 637.413 37.04 637.979 37.04Z" fill="#1C2B32"/>
<path d="M649.774 34.88V41.968C649.774 42.8107 649.992 43.4453 650.43 43.872C650.878 44.2987 651.496 44.512 652.286 44.512C653.086 44.512 653.704 44.2987 654.142 43.872C654.59 43.4453 654.814 42.8107 654.814 41.968V34.88H656.638V41.936C656.638 42.8427 656.44 43.6107 656.046 44.24C655.651 44.8693 655.123 45.3387 654.462 45.648C653.8 45.9573 653.07 46.112 652.27 46.112C651.47 46.112 650.739 45.9573 650.078 45.648C649.427 45.3387 648.91 44.8693 648.526 44.24C648.142 43.6107 647.95 42.8427 647.95 41.936V34.88H649.774ZM662.501 41.6L666.565 46H664.101L660.837 42.208V46H659.013V34.16H660.837V41.04L664.037 37.184H666.565L662.501 41.6ZM669.696 38.464C669.963 38.016 670.315 37.6693 670.752 37.424C671.2 37.168 671.728 37.04 672.336 37.04V38.928H671.872C671.157 38.928 670.613 39.1093 670.24 39.472C669.877 39.8347 669.696 40.464 669.696 41.36V46H667.872V37.184H669.696V38.464ZM673.405 41.552C673.405 40.6667 673.586 39.8827 673.949 39.2C674.322 38.5173 674.823 37.9893 675.453 37.616C676.093 37.232 676.797 37.04 677.565 37.04C678.258 37.04 678.861 37.1787 679.373 37.456C679.895 37.7227 680.311 38.0587 680.621 38.464V37.184H682.461V46H680.621V44.688C680.311 45.104 679.89 45.4507 679.357 45.728C678.823 46.0053 678.215 46.144 677.533 46.144C676.775 46.144 676.082 45.952 675.453 45.568C674.823 45.1733 674.322 44.6293 673.949 43.936C673.586 43.232 673.405 42.4373 673.405 41.552ZM680.621 41.584C680.621 40.976 680.493 40.448 680.237 40C679.991 39.552 679.666 39.2107 679.261 38.976C678.855 38.7413 678.418 38.624 677.949 38.624C677.479 38.624 677.042 38.7413 676.637 38.976C676.231 39.2 675.901 39.536 675.645 39.984C675.399 40.4213 675.277 40.944 675.277 41.552C675.277 42.16 675.399 42.6933 675.645 43.152C675.901 43.6107 676.231 43.9627 676.637 44.208C677.053 44.4427 677.49 44.56 677.949 44.56C678.418 44.56 678.855 44.4427 679.261 44.208C679.666 43.9733 679.991 43.632 680.237 43.184C680.493 42.7253 680.621 42.192 680.621 41.584ZM685.784 36.016C685.454 36.016 685.176 35.904 684.952 35.68C684.728 35.456 684.616 35.1787 684.616 34.848C684.616 34.5173 684.728 34.24 684.952 34.016C685.176 33.792 685.454 33.68 685.784 33.68C686.104 33.68 686.376 33.792 686.6 34.016C686.824 34.24 686.936 34.5173 686.936 34.848C686.936 35.1787 686.824 35.456 686.6 35.68C686.376 35.904 686.104 36.016 685.784 36.016ZM686.68 37.184V46H684.856V37.184H686.68ZM693.523 37.04C694.216 37.04 694.835 37.184 695.379 37.472C695.934 37.76 696.366 38.1867 696.675 38.752C696.984 39.3173 697.139 40 697.139 40.8V46H695.331V41.072C695.331 40.2827 695.134 39.68 694.739 39.264C694.344 38.8373 693.806 38.624 693.123 38.624C692.44 38.624 691.896 38.8373 691.491 39.264C691.096 39.68 690.899 40.2827 690.899 41.072V46H689.075V37.184H690.899V38.192C691.198 37.8293 691.576 37.5467 692.035 37.344C692.504 37.1413 693 37.04 693.523 37.04ZM707.546 41.376C707.546 41.7067 707.524 42.0053 707.482 42.272H700.746C700.799 42.976 701.06 43.5413 701.53 43.968C701.999 44.3947 702.575 44.608 703.258 44.608C704.239 44.608 704.932 44.1973 705.338 43.376H707.306C707.039 44.1867 706.554 44.8533 705.85 45.376C705.156 45.888 704.292 46.144 703.258 46.144C702.415 46.144 701.658 45.9573 700.986 45.584C700.324 45.2 699.802 44.6667 699.418 43.984C699.044 43.2907 698.858 42.4907 698.858 41.584C698.858 40.6773 699.039 39.8827 699.402 39.2C699.775 38.5067 700.292 37.9733 700.954 37.6C701.626 37.2267 702.394 37.04 703.258 37.04C704.09 37.04 704.831 37.2213 705.482 37.584C706.132 37.9467 706.639 38.4587 707.002 39.12C707.364 39.7707 707.546 40.5227 707.546 41.376ZM705.642 40.8C705.631 40.128 705.391 39.5893 704.922 39.184C704.452 38.7787 703.871 38.576 703.178 38.576C702.548 38.576 702.01 38.7787 701.562 39.184C701.114 39.5787 700.847 40.1173 700.762 40.8H705.642Z" fill="#4386D1"/>
<path d="M557 47.6H646.769V48.4H557V47.6Z" fill="#1C2B32"/>
<path d="M646.766 47.6H708.138V48.4H646.766V47.6Z" fill="#4386D1"/>
<path d="M896.68 34.88L893.384 46H891.32L888.984 37.584L886.504 46L884.456 46.016L881.304 34.88H883.24L885.544 43.936L888.04 34.88H890.088L892.408 43.888L894.728 34.88H896.68ZM902.744 37.04C903.416 37.04 904.014 37.184 904.536 37.472C905.07 37.76 905.486 38.1867 905.784 38.752C906.094 39.3173 906.248 40 906.248 40.8V46H904.44V41.072C904.44 40.2827 904.243 39.68 903.848 39.264C903.454 38.8373 902.915 38.624 902.232 38.624C901.55 38.624 901.006 38.8373 900.6 39.264C900.206 39.68 900.008 40.2827 900.008 41.072V46H898.184V34.16H900.008V38.208C900.318 37.8347 900.707 37.5467 901.176 37.344C901.656 37.1413 902.179 37.04 902.744 37.04ZM907.967 41.552C907.967 40.6667 908.148 39.8827 908.511 39.2C908.884 38.5173 909.386 37.9893 910.015 37.616C910.655 37.232 911.359 37.04 912.127 37.04C912.82 37.04 913.423 37.1787 913.935 37.456C914.458 37.7227 914.874 38.0587 915.183 38.464V37.184H917.023V46H915.183V44.688C914.874 45.104 914.452 45.4507 913.919 45.728C913.386 46.0053 912.778 46.144 912.095 46.144C911.338 46.144 910.644 45.952 910.015 45.568C909.386 45.1733 908.884 44.6293 908.511 43.936C908.148 43.232 907.967 42.4373 907.967 41.552ZM915.183 41.584C915.183 40.976 915.055 40.448 914.799 40C914.554 39.552 914.228 39.2107 913.823 38.976C913.418 38.7413 912.98 38.624 912.511 38.624C912.042 38.624 911.604 38.7413 911.199 38.976C910.794 39.2 910.463 39.536 910.207 39.984C909.962 40.4213 909.839 40.944 909.839 41.552C909.839 42.16 909.962 42.6933 910.207 43.152C910.463 43.6107 910.794 43.9627 911.199 44.208C911.615 44.4427 912.052 44.56 912.511 44.56C912.98 44.56 913.418 44.4427 913.823 44.208C914.228 43.9733 914.554 43.632 914.799 43.184C915.055 42.7253 915.183 42.192 915.183 41.584ZM921.547 38.672V43.552C921.547 43.8827 921.621 44.1227 921.771 44.272C921.931 44.4107 922.197 44.48 922.571 44.48H923.691V46H922.251C921.429 46 920.8 45.808 920.363 45.424C919.925 45.04 919.707 44.416 919.707 43.552V38.672H918.667V37.184H919.707V34.992H921.547V37.184H923.691V38.672H921.547ZM941.368 37.184L938.632 46H936.712L934.936 39.488L933.16 46H931.24L928.488 37.184H930.344L932.184 44.272L934.056 37.184H935.96L937.752 44.24L939.576 37.184H941.368ZM950.811 41.376C950.811 41.7067 950.79 42.0053 950.747 42.272H944.011C944.065 42.976 944.326 43.5413 944.795 43.968C945.265 44.3947 945.841 44.608 946.523 44.608C947.505 44.608 948.198 44.1973 948.603 43.376H950.571C950.305 44.1867 949.819 44.8533 949.115 45.376C948.422 45.888 947.558 46.144 946.523 46.144C945.681 46.144 944.923 45.9573 944.251 45.584C943.59 45.2 943.067 44.6667 942.683 43.984C942.31 43.2907 942.123 42.4907 942.123 41.584C942.123 40.6773 942.305 39.8827 942.667 39.2C943.041 38.5067 943.558 37.9733 944.219 37.6C944.891 37.2267 945.659 37.04 946.523 37.04C947.355 37.04 948.097 37.2213 948.747 37.584C949.398 37.9467 949.905 38.4587 950.267 39.12C950.63 39.7707 950.811 40.5227 950.811 41.376ZM948.907 40.8C948.897 40.128 948.657 39.5893 948.187 39.184C947.718 38.7787 947.137 38.576 946.443 38.576C945.814 38.576 945.275 38.7787 944.827 39.184C944.379 39.5787 944.113 40.1173 944.027 40.8H948.907ZM956.155 41.552C956.155 40.6667 956.336 39.8827 956.699 39.2C957.072 38.5173 957.573 37.9893 958.203 37.616C958.843 37.232 959.552 37.04 960.331 37.04C960.907 37.04 961.472 37.168 962.027 37.424C962.592 37.6693 963.04 38 963.371 38.416V34.16H965.211V46H963.371V44.672C963.072 45.0987 962.656 45.4507 962.123 45.728C961.6 46.0053 960.997 46.144 960.315 46.144C959.547 46.144 958.843 45.952 958.203 45.568C957.573 45.1733 957.072 44.6293 956.699 43.936C956.336 43.232 956.155 42.4373 956.155 41.552ZM963.371 41.584C963.371 40.976 963.243 40.448 962.987 40C962.741 39.552 962.416 39.2107 962.011 38.976C961.605 38.7413 961.168 38.624 960.699 38.624C960.229 38.624 959.792 38.7413 959.387 38.976C958.981 39.2 958.651 39.536 958.395 39.984C958.149 40.4213 958.027 40.944 958.027 41.552C958.027 42.16 958.149 42.6933 958.395 43.152C958.651 43.6107 958.981 43.9627 959.387 44.208C959.803 44.4427 960.24 44.56 960.699 44.56C961.168 44.56 961.605 44.4427 962.011 44.208C962.416 43.9733 962.741 43.632 962.987 43.184C963.243 42.7253 963.371 42.192 963.371 41.584ZM971.43 46.144C970.598 46.144 969.846 45.9573 969.174 45.584C968.502 45.2 967.974 44.6667 967.59 43.984C967.206 43.2907 967.014 42.4907 967.014 41.584C967.014 40.688 967.212 39.8933 967.606 39.2C968.001 38.5067 968.54 37.9733 969.222 37.6C969.905 37.2267 970.668 37.04 971.51 37.04C972.353 37.04 973.116 37.2267 973.798 37.6C974.481 37.9733 975.02 38.5067 975.414 39.2C975.809 39.8933 976.006 40.688 976.006 41.584C976.006 42.48 975.804 43.2747 975.398 43.968C974.993 44.6613 974.438 45.2 973.734 45.584C973.041 45.9573 972.273 46.144 971.43 46.144ZM971.43 44.56C971.9 44.56 972.337 44.448 972.742 44.224C973.158 44 973.494 43.664 973.75 43.216C974.006 42.768 974.134 42.224 974.134 41.584C974.134 40.944 974.012 40.4053 973.766 39.968C973.521 39.52 973.196 39.184 972.79 38.96C972.385 38.736 971.948 38.624 971.478 38.624C971.009 38.624 970.572 38.736 970.166 38.96C969.772 39.184 969.457 39.52 969.222 39.968C968.988 40.4053 968.87 40.944 968.87 41.584C968.87 42.5333 969.11 43.2693 969.59 43.792C970.081 44.304 970.694 44.56 971.43 44.56Z" fill="#535B5E"/>
<path d="M1025.59 40.416C1025.59 39.328 1025.84 38.352 1026.34 37.488C1026.86 36.624 1027.54 35.952 1028.41 35.472C1029.28 34.9813 1030.24 34.736 1031.27 34.736C1032.46 34.736 1033.51 35.0293 1034.42 35.616C1035.35 36.192 1036.02 37.0133 1036.44 38.08H1034.25C1033.96 37.4933 1033.56 37.056 1033.05 36.768C1032.54 36.48 1031.94 36.336 1031.27 36.336C1030.54 36.336 1029.88 36.5013 1029.3 36.832C1028.73 37.1627 1028.27 37.6373 1027.94 38.256C1027.62 38.8747 1027.46 39.5947 1027.46 40.416C1027.46 41.2373 1027.62 41.9573 1027.94 42.576C1028.27 43.1947 1028.73 43.6747 1029.3 44.016C1029.88 44.3467 1030.54 44.512 1031.27 44.512C1031.94 44.512 1032.54 44.368 1033.05 44.08C1033.56 43.792 1033.96 43.3547 1034.25 42.768H1036.44C1036.02 43.8347 1035.35 44.656 1034.42 45.232C1033.51 45.808 1032.46 46.096 1031.27 46.096C1030.23 46.096 1029.27 45.856 1028.41 45.376C1027.54 44.8853 1026.86 44.208 1026.34 43.344C1025.84 42.48 1025.59 41.504 1025.59 40.416ZM1037.97 41.552C1037.97 40.6667 1038.15 39.8827 1038.51 39.2C1038.88 38.5173 1039.39 37.9893 1040.02 37.616C1040.66 37.232 1041.36 37.04 1042.13 37.04C1042.82 37.04 1043.42 37.1787 1043.94 37.456C1044.46 37.7227 1044.87 38.0587 1045.18 38.464V37.184H1047.02V46H1045.18V44.688C1044.87 45.104 1044.45 45.4507 1043.92 45.728C1043.39 46.0053 1042.78 46.144 1042.1 46.144C1041.34 46.144 1040.64 45.952 1040.02 45.568C1039.39 45.1733 1038.88 44.6293 1038.51 43.936C1038.15 43.232 1037.97 42.4373 1037.97 41.552ZM1045.18 41.584C1045.18 40.976 1045.06 40.448 1044.8 40C1044.55 39.552 1044.23 39.2107 1043.82 38.976C1043.42 38.7413 1042.98 38.624 1042.51 38.624C1042.04 38.624 1041.6 38.7413 1041.2 38.976C1040.79 39.2 1040.46 39.536 1040.21 39.984C1039.96 40.4213 1039.84 40.944 1039.84 41.552C1039.84 42.16 1039.96 42.6933 1040.21 43.152C1040.46 43.6107 1040.79 43.9627 1041.2 44.208C1041.62 44.4427 1042.05 44.56 1042.51 44.56C1042.98 44.56 1043.42 44.4427 1043.82 44.208C1044.23 43.9733 1044.55 43.632 1044.8 43.184C1045.06 42.7253 1045.18 42.192 1045.18 41.584ZM1051.24 38.464C1051.51 38.016 1051.86 37.6693 1052.3 37.424C1052.75 37.168 1053.27 37.04 1053.88 37.04V38.928H1053.42C1052.7 38.928 1052.16 39.1093 1051.79 39.472C1051.42 39.8347 1051.24 40.464 1051.24 41.36V46H1049.42V37.184H1051.24V38.464ZM1063.64 41.376C1063.64 41.7067 1063.62 42.0053 1063.58 42.272H1056.84C1056.89 42.976 1057.15 43.5413 1057.62 43.968C1058.09 44.3947 1058.67 44.608 1059.35 44.608C1060.33 44.608 1061.03 44.1973 1061.43 43.376H1063.4C1063.13 44.1867 1062.65 44.8533 1061.94 45.376C1061.25 45.888 1060.39 46.144 1059.35 46.144C1058.51 46.144 1057.75 45.9573 1057.08 45.584C1056.42 45.2 1055.9 44.6667 1055.51 43.984C1055.14 43.2907 1054.95 42.4907 1054.95 41.584C1054.95 40.6773 1055.13 39.8827 1055.5 39.2C1055.87 38.5067 1056.39 37.9733 1057.05 37.6C1057.72 37.2267 1058.49 37.04 1059.35 37.04C1060.18 37.04 1060.92 37.2213 1061.58 37.584C1062.23 37.9467 1062.73 38.4587 1063.1 39.12C1063.46 39.7707 1063.64 40.5227 1063.64 41.376ZM1061.74 40.8C1061.72 40.128 1061.48 39.5893 1061.02 39.184C1060.55 38.7787 1059.96 38.576 1059.27 38.576C1058.64 38.576 1058.1 38.7787 1057.66 39.184C1057.21 39.5787 1056.94 40.1173 1056.86 40.8H1061.74ZM1073.51 41.376C1073.51 41.7067 1073.49 42.0053 1073.45 42.272H1066.71C1066.77 42.976 1067.03 43.5413 1067.5 43.968C1067.97 44.3947 1068.54 44.608 1069.23 44.608C1070.21 44.608 1070.9 44.1973 1071.31 43.376H1073.27C1073.01 44.1867 1072.52 44.8533 1071.82 45.376C1071.13 45.888 1070.26 46.144 1069.23 46.144C1068.38 46.144 1067.63 45.9573 1066.95 45.584C1066.29 45.2 1065.77 44.6667 1065.39 43.984C1065.01 43.2907 1064.83 42.4907 1064.83 41.584C1064.83 40.6773 1065.01 39.8827 1065.37 39.2C1065.74 38.5067 1066.26 37.9733 1066.92 37.6C1067.59 37.2267 1068.36 37.04 1069.23 37.04C1070.06 37.04 1070.8 37.2213 1071.45 37.584C1072.1 37.9467 1072.61 38.4587 1072.97 39.12C1073.33 39.7707 1073.51 40.5227 1073.51 41.376ZM1071.61 40.8C1071.6 40.128 1071.36 39.5893 1070.89 39.184C1070.42 38.7787 1069.84 38.576 1069.15 38.576C1068.52 38.576 1067.98 38.7787 1067.53 39.184C1067.08 39.5787 1066.82 40.1173 1066.73 40.8H1071.61ZM1077.13 38.464C1077.4 38.016 1077.75 37.6693 1078.19 37.424C1078.64 37.168 1079.17 37.04 1079.77 37.04V38.928H1079.31C1078.59 38.928 1078.05 39.1093 1077.68 39.472C1077.31 39.8347 1077.13 40.464 1077.13 41.36V46H1075.31V37.184H1077.13V38.464Z" fill="#4EBA85"/>
<path d="M1129.59 40.416C1129.59 39.328 1129.84 38.352 1130.34 37.488C1130.86 36.624 1131.54 35.952 1132.41 35.472C1133.28 34.9813 1134.24 34.736 1135.27 34.736C1136.46 34.736 1137.51 35.0293 1138.42 35.616C1139.35 36.192 1140.02 37.0133 1140.44 38.08H1138.25C1137.96 37.4933 1137.56 37.056 1137.05 36.768C1136.54 36.48 1135.94 36.336 1135.27 36.336C1134.54 36.336 1133.88 36.5013 1133.3 36.832C1132.73 37.1627 1132.27 37.6373 1131.94 38.256C1131.62 38.8747 1131.46 39.5947 1131.46 40.416C1131.46 41.2373 1131.62 41.9573 1131.94 42.576C1132.27 43.1947 1132.73 43.6747 1133.3 44.016C1133.88 44.3467 1134.54 44.512 1135.27 44.512C1135.94 44.512 1136.54 44.368 1137.05 44.08C1137.56 43.792 1137.96 43.3547 1138.25 42.768H1140.44C1140.02 43.8347 1139.35 44.656 1138.42 45.232C1137.51 45.808 1136.46 46.096 1135.27 46.096C1134.23 46.096 1133.27 45.856 1132.41 45.376C1131.54 44.8853 1130.86 44.208 1130.34 43.344C1129.84 42.48 1129.59 41.504 1129.59 40.416ZM1146.4 46.144C1145.57 46.144 1144.82 45.9573 1144.14 45.584C1143.47 45.2 1142.94 44.6667 1142.56 43.984C1142.18 43.2907 1141.98 42.4907 1141.98 41.584C1141.98 40.688 1142.18 39.8933 1142.58 39.2C1142.97 38.5067 1143.51 37.9733 1144.19 37.6C1144.87 37.2267 1145.64 37.04 1146.48 37.04C1147.32 37.04 1148.08 37.2267 1148.77 37.6C1149.45 37.9733 1149.99 38.5067 1150.38 39.2C1150.78 39.8933 1150.98 40.688 1150.98 41.584C1150.98 42.48 1150.77 43.2747 1150.37 43.968C1149.96 44.6613 1149.41 45.2 1148.7 45.584C1148.01 45.9573 1147.24 46.144 1146.4 46.144ZM1146.4 44.56C1146.87 44.56 1147.31 44.448 1147.71 44.224C1148.13 44 1148.46 43.664 1148.72 43.216C1148.98 42.768 1149.1 42.224 1149.1 41.584C1149.1 40.944 1148.98 40.4053 1148.74 39.968C1148.49 39.52 1148.16 39.184 1147.76 38.96C1147.35 38.736 1146.92 38.624 1146.45 38.624C1145.98 38.624 1145.54 38.736 1145.14 38.96C1144.74 39.184 1144.43 39.52 1144.19 39.968C1143.96 40.4053 1143.84 40.944 1143.84 41.584C1143.84 42.5333 1144.08 43.2693 1144.56 43.792C1145.05 44.304 1145.66 44.56 1146.4 44.56ZM1157.23 37.04C1157.92 37.04 1158.54 37.184 1159.08 37.472C1159.64 37.76 1160.07 38.1867 1160.38 38.752C1160.69 39.3173 1160.84 40 1160.84 40.8V46H1159.03V41.072C1159.03 40.2827 1158.84 39.68 1158.44 39.264C1158.05 38.8373 1157.51 38.624 1156.83 38.624C1156.14 38.624 1155.6 38.8373 1155.19 39.264C1154.8 39.68 1154.6 40.2827 1154.6 41.072V46H1152.78V37.184H1154.6V38.192C1154.9 37.8293 1155.28 37.5467 1155.74 37.344C1156.21 37.1413 1156.7 37.04 1157.23 37.04ZM1165.3 38.672V43.552C1165.3 43.8827 1165.37 44.1227 1165.52 44.272C1165.68 44.4107 1165.95 44.48 1166.32 44.48H1167.44V46H1166C1165.18 46 1164.55 45.808 1164.11 45.424C1163.68 45.04 1163.46 44.416 1163.46 43.552V38.672H1162.42V37.184H1163.46V34.992H1165.3V37.184H1167.44V38.672H1165.3ZM1168.51 41.552C1168.51 40.6667 1168.7 39.8827 1169.06 39.2C1169.43 38.5173 1169.93 37.9893 1170.56 37.616C1171.2 37.232 1171.91 37.04 1172.67 37.04C1173.37 37.04 1173.97 37.1787 1174.48 37.456C1175 37.7227 1175.42 38.0587 1175.73 38.464V37.184H1177.57V46H1175.73V44.688C1175.42 45.104 1175 45.4507 1174.47 45.728C1173.93 46.0053 1173.32 46.144 1172.64 46.144C1171.88 46.144 1171.19 45.952 1170.56 45.568C1169.93 45.1733 1169.43 44.6293 1169.06 43.936C1168.7 43.232 1168.51 42.4373 1168.51 41.552ZM1175.73 41.584C1175.73 40.976 1175.6 40.448 1175.35 40C1175.1 39.552 1174.78 39.2107 1174.37 38.976C1173.96 38.7413 1173.53 38.624 1173.06 38.624C1172.59 38.624 1172.15 38.7413 1171.75 38.976C1171.34 39.2 1171.01 39.536 1170.75 39.984C1170.51 40.4213 1170.39 40.944 1170.39 41.552C1170.39 42.16 1170.51 42.6933 1170.75 43.152C1171.01 43.6107 1171.34 43.9627 1171.75 44.208C1172.16 44.4427 1172.6 44.56 1173.06 44.56C1173.53 44.56 1173.96 44.4427 1174.37 44.208C1174.78 43.9733 1175.1 43.632 1175.35 43.184C1175.6 42.7253 1175.73 42.192 1175.73 41.584ZM1179.36 41.584C1179.36 40.6773 1179.54 39.8827 1179.9 39.2C1180.27 38.5067 1180.79 37.9733 1181.44 37.6C1182.09 37.2267 1182.83 37.04 1183.68 37.04C1184.74 37.04 1185.62 37.296 1186.32 37.808C1187.02 38.3093 1187.5 39.0293 1187.74 39.968H1185.77C1185.61 39.5307 1185.36 39.1893 1185.01 38.944C1184.65 38.6987 1184.21 38.576 1183.68 38.576C1182.93 38.576 1182.33 38.8427 1181.89 39.376C1181.45 39.8987 1181.23 40.6347 1181.23 41.584C1181.23 42.5333 1181.45 43.2747 1181.89 43.808C1182.33 44.3413 1182.93 44.608 1183.68 44.608C1184.73 44.608 1185.43 44.144 1185.77 43.216H1187.74C1187.49 44.112 1187.01 44.8267 1186.3 45.36C1185.6 45.8827 1184.72 46.144 1183.68 46.144C1182.83 46.144 1182.09 45.9573 1181.44 45.584C1180.79 45.2 1180.27 44.6667 1179.9 43.984C1179.54 43.2907 1179.36 42.4907 1179.36 41.584ZM1191.69 38.672V43.552C1191.69 43.8827 1191.76 44.1227 1191.91 44.272C1192.07 44.4107 1192.34 44.48 1192.71 44.48H1193.83V46H1192.39C1191.57 46 1190.94 45.808 1190.5 45.424C1190.07 45.04 1189.85 44.416 1189.85 43.552V38.672H1188.81V37.184H1189.85V34.992H1191.69V37.184H1193.83V38.672H1191.69Z" fill="#535B5E"/>
<path d="M1250.79 40.24C1251.44 40.3787 1251.97 40.704 1252.36 41.216C1252.75 41.7173 1252.95 42.2933 1252.95 42.944C1252.95 43.8827 1252.62 44.6293 1251.96 45.184C1251.31 45.728 1250.4 46 1249.22 46H1243.99V34.768H1249.05C1250.19 34.768 1251.08 35.0293 1251.72 35.552C1252.37 36.0747 1252.7 36.784 1252.7 37.68C1252.7 38.3413 1252.52 38.8907 1252.17 39.328C1251.83 39.7653 1251.37 40.0693 1250.79 40.24ZM1246.73 39.312H1248.52C1248.97 39.312 1249.31 39.216 1249.54 39.024C1249.79 38.8213 1249.91 38.528 1249.91 38.144C1249.91 37.76 1249.79 37.4667 1249.54 37.264C1249.31 37.0613 1248.97 36.96 1248.52 36.96H1246.73V39.312ZM1248.74 43.792C1249.2 43.792 1249.55 43.6907 1249.8 43.488C1250.06 43.2747 1250.18 42.9707 1250.18 42.576C1250.18 42.1813 1250.05 41.872 1249.78 41.648C1249.53 41.424 1249.17 41.312 1248.71 41.312H1246.73V43.792H1248.74ZM1257.27 34.16V46H1254.54V34.16H1257.27ZM1263.32 46.128C1262.45 46.128 1261.66 45.9413 1260.95 45.568C1260.26 45.1947 1259.71 44.6613 1259.31 43.968C1258.91 43.2747 1258.71 42.464 1258.71 41.536C1258.71 40.6187 1258.92 39.8133 1259.32 39.12C1259.73 38.416 1260.28 37.8773 1260.99 37.504C1261.69 37.1307 1262.48 36.944 1263.35 36.944C1264.23 36.944 1265.02 37.1307 1265.72 37.504C1266.43 37.8773 1266.98 38.416 1267.39 39.12C1267.79 39.8133 1267.99 40.6187 1267.99 41.536C1267.99 42.4533 1267.79 43.264 1267.37 43.968C1266.96 44.6613 1266.4 45.1947 1265.69 45.568C1264.99 45.9413 1264.2 46.128 1263.32 46.128ZM1263.32 43.76C1263.84 43.76 1264.29 43.568 1264.65 43.184C1265.02 42.8 1265.21 42.2507 1265.21 41.536C1265.21 40.8213 1265.03 40.272 1264.67 39.888C1264.31 39.504 1263.88 39.312 1263.35 39.312C1262.82 39.312 1262.38 39.504 1262.03 39.888C1261.67 40.2613 1261.5 40.8107 1261.5 41.536C1261.5 42.2507 1261.67 42.8 1262.01 43.184C1262.36 43.568 1262.8 43.76 1263.32 43.76ZM1272.84 36.944C1273.47 36.944 1274.02 37.072 1274.49 37.328C1274.97 37.584 1275.33 37.92 1275.59 38.336V37.072H1278.33V45.984C1278.33 46.8053 1278.16 47.5467 1277.83 48.208C1277.51 48.88 1277.01 49.4133 1276.34 49.808C1275.68 50.2027 1274.85 50.4 1273.86 50.4C1272.54 50.4 1271.47 50.0853 1270.65 49.456C1269.82 48.8373 1269.35 47.9947 1269.24 46.928H1271.94C1272.03 47.2693 1272.23 47.536 1272.55 47.728C1272.87 47.9307 1273.26 48.032 1273.73 48.032C1274.3 48.032 1274.75 47.8667 1275.08 47.536C1275.42 47.216 1275.59 46.6987 1275.59 45.984V44.72C1275.32 45.136 1274.95 45.4773 1274.49 45.744C1274.02 46 1273.47 46.128 1272.84 46.128C1272.1 46.128 1271.43 45.9413 1270.84 45.568C1270.24 45.184 1269.77 44.6453 1269.41 43.952C1269.07 43.248 1268.9 42.4373 1268.9 41.52C1268.9 40.6027 1269.07 39.7973 1269.41 39.104C1269.77 38.4107 1270.24 37.8773 1270.84 37.504C1271.43 37.1307 1272.1 36.944 1272.84 36.944ZM1275.59 41.536C1275.59 40.8533 1275.4 40.3147 1275.01 39.92C1274.64 39.5253 1274.18 39.328 1273.64 39.328C1273.09 39.328 1272.63 39.5253 1272.25 39.92C1271.87 40.304 1271.69 40.8373 1271.69 41.52C1271.69 42.2027 1271.87 42.7467 1272.25 43.152C1272.63 43.5467 1273.09 43.744 1273.64 43.744C1274.18 43.744 1274.64 43.5467 1275.01 43.152C1275.4 42.7573 1275.59 42.2187 1275.59 41.536Z" fill="#434343"/>
<path fill-rule="evenodd" clip-rule="evenodd" d="M1269 66C1269 69.866 1265.87 73 1262 73C1258.13 73 1255 69.866 1255 66C1255 62.134 1258.13 59 1262 59C1265.87 59 1269 62.134 1269 66ZM1264.41 65.9997C1264.41 67.3328 1263.33 68.4135 1262 68.4135C1260.67 68.4135 1259.59 67.3328 1259.59 65.9997C1259.59 64.6666 1260.67 63.5859 1262 63.5859C1263.33 63.5859 1264.41 64.6666 1264.41 65.9997Z" fill="#4EBA85"/>
</svg>
