<svg width="50" height="48" viewBox="0 0 50 48" fill="none" xmlns="http://www.w3.org/2000/svg">
<path fill-rule="evenodd" clip-rule="evenodd" d="M44.2663 22.2498C42.9946 28.237 43.2705 33.9554 43.2856 39.9873C43.2887 41.1652 44.2426 42.1146 45.4153 42.1131C46.5887 42.1116 47.5378 41.152 47.5354 39.974C47.5209 34.2544 47.2157 28.8208 48.4225 23.1337C48.6668 21.9834 47.9331 20.8497 46.7861 20.6091C45.6395 20.3614 44.5099 21.0995 44.2663 22.2498Z" fill="#1C2B32"/>
<path fill-rule="evenodd" clip-rule="evenodd" d="M31.5079 11.1268C21.8956 20.4995 12.9371 32.4491 6.78968 44.4236C6.25364 45.4695 6.66479 46.7554 7.70772 47.2902C8.75064 47.8251 10.0331 47.4156 10.5691 46.3697C16.5136 34.7919 25.1776 23.2348 34.4725 14.1772C35.3125 13.3559 35.3302 12.0069 34.5122 11.1669C33.6942 10.3269 32.3479 10.3055 31.5079 11.1268Z" fill="#1C2B32"/>
<path fill-rule="evenodd" clip-rule="evenodd" d="M28.6885 1.30845C19.5887 0.0978753 10.3383 2.9443 2.2205 6.81248C1.16158 7.32134 0.711252 8.59164 1.21434 9.6474C1.71836 10.7102 2.9875 11.1599 4.04664 10.6582C11.4396 7.13219 19.8413 4.42602 28.1292 5.52735C29.292 5.68231 30.3609 4.86089 30.5149 3.69925C30.6696 2.53759 29.8506 1.46344 28.6885 1.30845Z" fill="#1C2B32"/>
</svg>
