<svg width="24" height="25" viewBox="0 0 24 25" fill="none" xmlns="http://www.w3.org/2000/svg">
<path fill-rule="evenodd" clip-rule="evenodd" d="M24 12.5776C24 19.2051 18.6274 24.5776 12 24.5776C5.37258 24.5776 0 19.2051 0 12.5776C0 5.95022 5.37258 0.577637 12 0.577637C18.6274 0.577637 24 5.95022 24 12.5776ZM12 10.5776C10.8972 10.5776 10 11.4749 10 12.5776C10 13.6804 10.8972 14.5776 12 14.5776C13.1028 14.5776 14 13.6804 14 12.5776C14 11.4749 13.1029 10.5776 12 10.5776ZM14.1967 5.57764C15.4748 5.57764 16.6796 6.07858 17.5893 6.9883C18.4989 7.8979 19 9.10284 19 10.381V14.7742C19 16.0524 18.4989 17.2574 17.5893 18.167C16.6797 19.0767 15.4748 19.5776 14.1967 19.5776H9.80331C8.52521 19.5776 7.32027 19.0767 6.41066 18.167C5.50095 17.2574 5 16.0524 5 14.7742V10.381C5 9.10284 5.50095 7.8979 6.41066 6.9883C7.32027 6.07858 8.52521 5.57764 9.80331 5.57764H14.1967ZM8.29492 12.5776C8.29492 14.6206 9.95702 16.2827 12 16.2827C14.043 16.2827 15.7051 14.6206 15.7051 12.5776C15.7051 10.5347 14.043 8.87256 12 8.87256C9.95702 8.87256 8.29492 10.5347 8.29492 12.5776ZM15.8146 9.17323C15.9224 9.17323 16.0283 9.12944 16.1046 9.05318C16.1809 8.97681 16.2247 8.87096 16.2247 8.76308C16.2247 8.65509 16.1809 8.54924 16.1046 8.47298C16.0283 8.39661 15.9224 8.35292 15.8146 8.35292C15.7065 8.35292 15.6009 8.39661 15.5247 8.47298C15.4481 8.54924 15.4044 8.65509 15.4044 8.76308C15.4044 8.87106 15.4481 8.97681 15.5247 9.05318C15.6009 9.12944 15.7066 9.17323 15.8146 9.17323Z" fill="white"/>
</svg>
